<?xml version="1.0" standalone="no"?>
<!DOCTYPE svg PUBLIC "-//W3C//DTD SVG 20010904//EN"
 "http://www.w3.org/TR/2001/REC-SVG-20010904/DTD/svg10.dtd">
<svg version="1.0" xmlns="http://www.w3.org/2000/svg"
 width="64.000000pt" height="64.000000pt" viewBox="0 0 64.000000 64.000000"
 preserveAspectRatio="xMidYMid meet">

<g transform="translate(0.000000,64.000000) scale(0.100000,-0.100000)"
fill="#000000" stroke="none">
<path d="M10 573 c1 -18 16 -31 40 -34 23 -4 27 -14 61 -156 20 -84 42 -160
49 -168 18 -22 352 -22 370 -1 12 15 56 243 48 251 -3 3 -417 35 -455 35 -2 0
-3 8 -3 18 0 36 -29 62 -71 62 -21 0 -39 -3 -39 -7z"/>
<path d="M176 144 c-31 -30 -9 -84 34 -84 24 0 50 26 50 50 0 24 -26 50 -50
50 -10 0 -26 -7 -34 -16z"/>
<path d="M436 144 c-31 -30 -9 -84 34 -84 24 0 50 26 50 50 0 24 -26 50 -50
50 -10 0 -26 -7 -34 -16z"/>
</g>
</svg>
