<?xml version="1.0" standalone="no"?>
<!DOCTYPE svg PUBLIC "-//W3C//DTD SVG 20010904//EN"
 "http://www.w3.org/TR/2001/REC-SVG-20010904/DTD/svg10.dtd">
<svg version="1.0" xmlns="http://www.w3.org/2000/svg"
 width="512.000000pt" height="512.000000pt" viewBox="0 0 512.000000 512.000000"
 preserveAspectRatio="xMidYMid meet">

<g transform="translate(0.000000,512.000000) scale(0.100000,-0.100000)"
fill="#000000" stroke="none">
<path d="M1220 4763 c-459 -70 -834 -351 -1053 -788 -61 -123 -103 -244 -134
-394 -23 -109 -26 -150 -27 -311 0 -156 3 -202 22 -290 49 -224 155 -476 296
-698 337 -533 978 -1135 1783 -1675 304 -204 397 -257 453 -257 53 0 121 37
370 202 1051 694 1802 1467 2064 2126 93 232 120 371 120 602 0 195 -19 323
-75 492 -119 365 -379 680 -698 846 -120 63 -180 86 -306 118 -136 35 -375 44
-515 20 -161 -28 -357 -103 -484 -184 -156 -100 -323 -261 -418 -403 -29 -43
-55 -79 -58 -79 -3 0 -30 37 -60 83 -72 108 -260 296 -370 369 -165 109 -342
181 -526 213 -79 14 -316 19 -384 8z m425 -322 c44 -12 130 -46 190 -76 247
-123 438 -334 550 -610 54 -131 60 -143 98 -165 63 -39 166 -17 198 42 7 13
31 68 54 123 141 347 411 596 745 687 73 20 108 23 250 23 200 0 278 -17 445
-100 347 -171 583 -520 636 -941 60 -478 -193 -998 -776 -1593 -347 -355 -743
-675 -1257 -1018 l-216 -144 -144 92 c-560 359 -1096 797 -1446 1179 -355 387
-568 743 -645 1074 -28 122 -30 371 -4 496 104 493 439 854 877 946 99 20 343
12 445 -15z"/>
</g>
</svg>
