<?xml version="1.0" standalone="no"?>
<!DOCTYPE svg PUBLIC "-//W3C//DTD SVG 20010904//EN"
 "http://www.w3.org/TR/2001/REC-SVG-20010904/DTD/svg10.dtd">
<svg version="1.0" xmlns="http://www.w3.org/2000/svg"
 width="512.000000pt" height="512.000000pt" viewBox="0 0 512.000000 512.000000"
 preserveAspectRatio="xMidYMid meet">
<metadata>
Created by potrace 1.16, written by Peter Selinger 2001-2019
</metadata>
<g transform="translate(0.000000,512.000000) scale(0.100000,-0.100000)"
fill="#000000" stroke="none">
<path d="M2415 4689 c-111 -15 -211 -46 -330 -104 -284 -139 -478 -378 -567
-703 -18 -65 -22 -105 -22 -252 0 -158 3 -184 27 -275 108 -400 422 -696 829
-779 159 -33 393 -18 553 36 335 111 598 394 692 743 24 91 27 117 27 275 0
189 -11 247 -70 397 -177 450 -649 724 -1139 662z"/>
<path d="M2375 2344 c-16 -2 -70 -9 -120 -15 -112 -14 -292 -58 -410 -99 -696
-247 -1177 -846 -1202 -1500 -6 -161 2 -193 64 -252 64 -62 -51 -58 1851 -58
1271 0 1745 3 1773 11 51 16 105 62 131 112 19 38 20 52 15 187 -27 717 -595
1354 -1386 1555 -171 43 -277 56 -486 60 -110 2 -213 2 -230 -1z"/>
</g>
</svg>
