<?xml version="1.0" standalone="no"?>
<!DOCTYPE svg PUBLIC "-//W3C//DTD SVG 20010904//EN"
 "http://www.w3.org/TR/2001/REC-SVG-20010904/DTD/svg10.dtd">
<svg version="1.0" xmlns="http://www.w3.org/2000/svg"
 width="64.000000pt" height="64.000000pt" viewBox="0 0 64.000000 64.000000"
 preserveAspectRatio="xMidYMid meet">

<g transform="translate(0.000000,64.000000) scale(0.100000,-0.100000)"
fill="#000000" stroke="none">
<path d="M171 623 c-26 -9 -65 -36 -91 -62 -128 -128 -98 -339 61 -426 47 -26
64 -30 129 -30 59 0 84 5 119 24 l44 23 76 -76 c76 -76 96 -87 119 -64 23 23
12 43 -64 119 l-76 76 23 44 c19 35 24 60 24 119 0 65 -4 82 -30 129 -31 56
-88 106 -148 128 -45 16 -134 14 -186 -4z m167 -78 c49 -21 81 -52 103 -100
45 -96 -1 -207 -103 -250 -47 -19 -89 -19 -136 0 -157 66 -161 275 -7 346 49
23 94 24 143 4z"/>
</g>
</svg>
