<?xml version="1.0" encoding="UTF-8"?>
<!DOCTYPE svg PUBLIC "-//W3C//DTD SVG 1.1//EN" "http://www.w3.org/Graphics/SVG/1.1/DTD/svg11.dtd">
<svg xmlns="http://www.w3.org/2000/svg" version="1.1" width="620px" height="620px" style="shape-rendering:geometricPrecision; text-rendering:geometricPrecision; image-rendering:optimizeQuality; fill-rule:evenodd; clip-rule:evenodd" xmlns:xlink="http://www.w3.org/1999/xlink">
<g><path style="opacity:1" fill="#fefefe" d="M 546.5,110.5 C 568.272,110.611 578.272,121.611 576.5,143.5C 561.233,266.435 542.066,388.768 519,510.5C 516.769,526.454 510.603,540.621 500.5,553C 491.135,559.721 480.802,561.721 469.5,559C 460.382,556.442 451.715,552.775 443.5,548C 392.167,513.333 340.833,478.667 289.5,444C 280.769,437.943 274.269,430.11 270,420.5C 269.209,416.074 269.543,411.741 271,407.5C 273.941,402.228 277.274,397.228 281,392.5C 315.229,358.935 350.063,326.101 385.5,294C 404,276.833 421.833,259 439,240.5C 443.52,236.188 444.52,231.188 442,225.5C 439.005,222.735 435.505,221.902 431.5,223C 428.198,224.651 424.864,226.318 421.5,228C 351.156,274.17 281.156,320.837 211.5,368C 195.075,378.809 177.075,383.476 157.5,382C 122.06,375.14 87.3932,365.473 53.5,353C 28.1831,341.75 27.1831,328.75 50.5,314C 175.586,258.623 301.252,204.623 427.5,152C 460.893,137.757 494.893,125.091 529.5,114C 535.265,112.614 540.931,111.448 546.5,110.5 Z"/></g>
</svg>
