<?xml version="1.0" encoding="UTF-8"?>
<!DOCTYPE svg PUBLIC "-//W3C//DTD SVG 1.1//EN" "http://www.w3.org/Graphics/SVG/1.1/DTD/svg11.dtd">
<svg xmlns="http://www.w3.org/2000/svg" version="1.1" width="512px" height="512px" style="shape-rendering:geometricPrecision; text-rendering:geometricPrecision; image-rendering:optimizeQuality; fill-rule:evenodd; clip-rule:evenodd" xmlns:xlink="http://www.w3.org/1999/xlink">
<g><path style="opacity:1" fill="#fefffe" d="M 511.5,168.5 C 511.5,221.833 511.5,275.167 511.5,328.5C 510.261,346.148 506.761,363.481 501,380.5C 487.41,410.909 463.91,428.076 430.5,432C 422.542,433.328 414.542,434.328 406.5,435C 356.51,436.1 306.51,436.6 256.5,436.5C 207.156,436.605 157.823,436.105 108.5,435C 89.5211,433.893 71.1878,429.893 53.5,423C 28.6055,411.773 12.7722,392.94 6,366.5C 2.84271,353.856 0.676046,341.19 -0.5,328.5C -0.5,273.5 -0.5,218.5 -0.5,163.5C 0.37442,143.35 6.20775,124.684 17,107.5C 30.1563,93.3352 46.323,84.5019 65.5,81C 86.298,76.9612 107.298,74.9612 128.5,75C 213.167,74.3333 297.833,74.3333 382.5,75C 410.877,74.3381 438.544,78.3381 465.5,87C 483.333,94.1667 495.833,106.667 503,124.5C 507.595,138.972 510.429,153.638 511.5,168.5 Z M 208.5,181.5 C 211.518,181.335 214.518,181.502 217.5,182C 254.833,201.333 292.167,220.667 329.5,240C 339.126,249.34 338.792,258.34 328.5,267C 292.676,285.412 257.009,304.078 221.5,323C 210.546,327.437 202.712,324.27 198,313.5C 197.333,273.167 197.333,232.833 198,192.5C 200.357,187.645 203.857,183.979 208.5,181.5 Z"/></g>
</svg>
